<?xml version="1.0" encoding="UTF-8"?>
<svg id="Layer_2" data-name="Layer 2" xmlns="http://www.w3.org/2000/svg" viewBox="0 0 333.17 72.38">
  <defs>
    <style>
      .cls-1 {
        fill: #fff;
      }

      .cls-2 {
        fill: #ffbe00;
      }
    </style>
  </defs>
  <g id="Layer_7" data-name="Layer 7">
    <g>
      <rect class="cls-1" x="53.8" y=".17" width="8.93" height="56.13"/>
      <rect class="cls-1" x="72.28" y="17.33" width="8.93" height="38.97"/>
      <path class="cls-1" d="M82.18,5.65c0,3.03-2.45,5.48-5.48,5.48s-5.48-2.45-5.48-5.48S73.67.17,76.69.17s5.48,2.45,5.48,5.48"/>
      <polygon class="cls-1" points="99.59 48.33 99.59 30 122.26 30 122.26 22.04 99.59 22.04 99.59 8.08 122.26 8.08 122.26 .12 90.66 .12 90.66 .24 90.66 8.08 90.66 22.04 90.66 30 90.66 48.33 90.66 56.22 90.66 56.29 119.36 56.29 125.03 48.33 99.59 48.33"/>
      <polygon class="cls-1" points="162.44 17.33 152.41 17.33 143.92 29.58 135.43 17.33 125.41 17.33 138.91 36.81 125.41 56.29 135.43 56.29 143.92 44.04 152.41 56.29 162.44 56.29 148.94 36.81 162.44 17.33"/>
      <path class="cls-1" d="M187.75,16.28c-4.53,0-8.66,1.89-11.81,5v-3.95h-8.76v55.05h8.76v-21.18c3.15,3.11,7.28,5,11.81,5,9.86,0,17.86-8.94,17.86-19.96s-8-19.96-17.86-19.96M186.78,48.39c-.24.02-.49.03-.74.03-3.8,0-7.13-2.26-9.02-5.66-1.12-1.91-1.77-4.19-1.77-6.64,0-6.78,4.98-12.28,11.12-12.28s11.12,5.5,11.12,12.28-4.76,12.03-10.72,12.27"/>
      <path class="cls-1" d="M229.69,16.45c-4.76,0-9.09,2.07-12.29,5.44v-4.5h-8.68v38.95h8.68v-5.97l.02-14.07c0-.06,0-.11,0-.17,0-.04,0-.08,0-.13v-.15h0c.13-6.6,5.01-11.9,11.01-11.9.63,0,1.24.06,1.83.17,1.61-2.46,3.67-4.59,6.06-6.26-2.05-.91-4.29-1.42-6.64-1.42"/>
      <path class="cls-1" d="M299.61,39.84s-.01-.02-.02-.03c-.01-.02-.02-.03-.03-.05-.08-.14-.16-.28-.25-.41-.21-.33-.44-.65-.69-.96-.01-.02-.03-.03-.04-.05-.09-.1-.17-.21-.26-.31-.38-.42-.79-.81-1.23-1.17-.65-.51-1.79-1.27-3.45-2.01-.95-.39-1.93-.69-2.94-.93-2.36-.55-5.04-.73-7.3-1.26-1.11-.22-2.1-.6-2.9-1.11-.02-.01-.04-.02-.05-.03-.06-.04-.12-.08-.19-.12,0,0-.01,0-.02-.01h0c-1.13-.79-1.82-1.84-1.82-2.99,0-2.46,3.18-4.46,7.1-4.46,3.45,0,6.33,1.55,6.97,3.6h7.65c-.68-5.71-6.96-10.17-14.61-10.17-8.11,0-14.68,5.02-14.68,11.21,0,2.81,1.36,5.39,3.6,7.35.29.25.6.5.92.73,0,0,2.89,2.57,8.83,3.12,3.68.34,5.59.67,6.82,1.38.27.17.51.34.73.53.39.35.71.78,1.03,1.3.17.37.27.75.27,1.15,0,2.41-3.36,4.37-7.51,4.37-3.4,0-6.26-1.31-7.19-3.11h-7.97c.8,6,7.28,10.68,15.16,10.68,2.78,0,5.39-.58,7.64-1.6,3.7-1.82,6.38-4.65,7.28-7.86,0-.01,0-.02.01-.04,0-.02.01-.04.02-.06.2-.77.3-1.56.3-2.38,0-.19,0-.38-.02-.57-.1-1.32-.49-2.57-1.13-3.72"/>
      <path class="cls-1" d="M332.01,39.84s-.01-.02-.02-.03c0-.02-.02-.03-.03-.05-.08-.14-.16-.28-.25-.41-.21-.33-.44-.65-.69-.96-.01-.02-.03-.03-.04-.05-.09-.1-.17-.21-.26-.31-.38-.42-.79-.81-1.23-1.17-.65-.51-1.79-1.27-3.45-2.01-.95-.39-1.93-.69-2.94-.93-2.36-.55-5.04-.73-7.3-1.26-1.11-.22-2.1-.6-2.9-1.11-.02-.01-.04-.02-.05-.03-.06-.04-.12-.08-.19-.12,0,0-.01,0-.02-.01h0c-1.13-.79-1.82-1.84-1.82-2.99,0-2.46,3.18-4.46,7.1-4.46,3.45,0,6.33,1.55,6.97,3.6h7.65c-.68-5.71-6.96-10.17-14.61-10.17-8.11,0-14.68,5.02-14.68,11.21,0,2.81,1.36,5.39,3.6,7.35.29.25.6.5.92.73,0,0,2.89,2.57,8.83,3.12,3.68.34,5.59.67,6.82,1.38.27.17.51.34.73.53.39.35.71.78,1.03,1.3.17.37.27.75.27,1.15,0,2.41-3.36,4.37-7.51,4.37-3.4,0-6.26-1.31-7.19-3.11h-7.97c.8,6,7.28,10.68,15.16,10.68,2.78,0,5.39-.58,7.64-1.6,3.7-1.82,6.38-4.65,7.28-7.86,0-.01,0-.02.01-.04,0-.02.01-.04.02-.06.2-.77.3-1.56.3-2.38,0-.19,0-.38-.02-.57-.1-1.32-.49-2.57-1.13-3.72"/>
      <path class="cls-1" d="M249.31,17.33c-10.52,0-19.04,8.73-19.04,19.51s8.52,19.51,19.04,19.51c7.42,0,13.85-4.6,16.99-10.94h-9.3c-2.04,1.87-4.73,3.26-7.69,3.26-5.23,0-9.64-3.56-11.06-8.45h29.82c.19-1.1.28-2.22.28-3.37,0-10.77-8.52-19.51-19.04-19.51M238.25,33.48c1.41-4.9,5.83-8.47,11.07-8.47s9.66,3.58,11.07,8.47h-22.13Z"/>
      <path class="cls-1" d="M48.6,56.34L34.02,0h-10.02l-9.16,24.48,6.06,8.91,7.04-19.31,11.07,39.54c.45,1.62,1.93,2.73,3.6,2.73h5.99Z"/>
      <path class="cls-1" d="M2.97,56.21h7c1.57,0,2.97-.98,3.51-2.46l.6-1.64-6.19-9.04-4.92,13.14Z"/>
      <path class="cls-2" d="M44.6,25.78c-10.03,0-19.02,4.26-25.29,11.21l-7.62-11.21H0l14.44,21.09s0,0,0,.01l2.6,3.79c8.85-11.28,21.09-19.79,35.18-23.98-2.44-.6-4.99-.91-7.62-.91"/>
    </g>
  </g>
</svg>