<?xml version="1.0" encoding="UTF-8"?>
<svg id="Layer_2" data-name="Layer 2" xmlns="http://www.w3.org/2000/svg" viewBox="0 0 578.08 72.52">
  <defs>
    <style>
      .cls-1 {
        fill: #fff;
      }

      .cls-2 {
        fill: #ffbe00;
      }
    </style>
  </defs>
  <g id="Layer_7" data-name="Layer 7">
    <g>
      <rect class="cls-1" x="53.8" y=".31" width="8.93" height="56.13"/>
      <rect class="cls-1" x="72.28" y="17.47" width="8.93" height="38.97"/>
      <path class="cls-1" d="M82.18,5.79c0,3.03-2.45,5.48-5.48,5.48s-5.48-2.45-5.48-5.48,2.45-5.48,5.48-5.48,5.48,2.45,5.48,5.48"/>
      <polygon class="cls-1" points="99.59 48.47 99.59 30.14 122.26 30.14 122.26 22.18 99.59 22.18 99.59 8.22 122.26 8.22 122.26 .26 90.66 .26 90.66 .38 90.66 8.22 90.66 22.18 90.66 30.14 90.66 48.47 90.66 56.36 90.66 56.43 119.36 56.43 125.03 48.47 99.59 48.47"/>
      <polygon class="cls-1" points="162.44 17.47 152.41 17.47 143.92 29.72 135.43 17.47 125.41 17.47 138.91 36.95 125.41 56.44 135.43 56.44 143.92 44.19 152.41 56.44 162.44 56.44 148.94 36.95 162.44 17.47"/>
      <path class="cls-1" d="M187.75,16.42c-4.53,0-8.66,1.89-11.81,5v-3.95h-8.76v55.05h8.76v-21.18c3.15,3.11,7.28,5,11.81,5,9.86,0,17.86-8.94,17.86-19.96s-8-19.96-17.86-19.96M186.78,48.54c-.24.02-.49.03-.74.03-3.8,0-7.13-2.26-9.02-5.66-1.12-1.91-1.77-4.19-1.77-6.64,0-6.78,4.98-12.28,11.12-12.28s11.12,5.5,11.12,12.28-4.76,12.03-10.72,12.27"/>
      <path class="cls-1" d="M229.69,16.6c-4.76,0-9.09,2.07-12.29,5.44v-4.5h-8.68v38.95h8.68v-5.97l.02-14.07c0-.06,0-.11,0-.17,0-.04,0-.08,0-.13v-.15h0c.13-6.6,5.01-11.9,11.01-11.9.63,0,1.24.06,1.83.17,1.61-2.46,3.67-4.59,6.06-6.26-2.05-.91-4.29-1.42-6.64-1.42"/>
      <path class="cls-1" d="M299.61,39.98s-.01-.02-.02-.03c-.01-.02-.02-.03-.03-.05-.08-.14-.16-.28-.25-.41-.21-.33-.44-.65-.69-.96-.01-.02-.03-.03-.04-.05-.09-.1-.17-.21-.26-.31-.38-.42-.79-.81-1.23-1.17-.65-.51-1.79-1.27-3.45-2.01-.95-.39-1.93-.69-2.94-.93-2.36-.55-5.04-.73-7.3-1.26-1.11-.22-2.1-.6-2.9-1.11-.02-.01-.04-.02-.05-.03-.06-.04-.12-.08-.19-.12,0,0-.01,0-.02-.01h0c-1.13-.79-1.82-1.84-1.82-2.99,0-2.46,3.18-4.46,7.1-4.46,3.45,0,6.33,1.55,6.97,3.6h7.65c-.68-5.71-6.96-10.17-14.61-10.17-8.11,0-14.68,5.02-14.68,11.21,0,2.81,1.36,5.39,3.6,7.35.29.25.6.5.92.73,0,0,2.89,2.57,8.83,3.12,3.68.34,5.59.67,6.82,1.38.27.17.51.34.73.53.39.35.71.78,1.03,1.3.17.37.27.75.27,1.15,0,2.41-3.36,4.37-7.51,4.37-3.4,0-6.26-1.31-7.19-3.11h-7.97c.8,6,7.28,10.68,15.16,10.68,2.78,0,5.39-.58,7.64-1.6,3.7-1.82,6.38-4.65,7.28-7.86,0-.01,0-.02.01-.04,0-.02.01-.04.02-.06.2-.77.3-1.56.3-2.38,0-.19,0-.38-.02-.57-.1-1.32-.49-2.57-1.13-3.72"/>
      <path class="cls-1" d="M332.01,39.98s-.01-.02-.02-.03c0-.02-.02-.03-.03-.05-.08-.14-.16-.28-.25-.41-.21-.33-.44-.65-.69-.96-.01-.02-.03-.03-.04-.05-.09-.1-.17-.21-.26-.31-.38-.42-.79-.81-1.23-1.17-.65-.51-1.79-1.27-3.45-2.01-.95-.39-1.93-.69-2.94-.93-2.36-.55-5.04-.73-7.3-1.26-1.11-.22-2.1-.6-2.9-1.11-.02-.01-.04-.02-.05-.03-.06-.04-.12-.08-.19-.12,0,0-.01,0-.02-.01h0c-1.13-.79-1.82-1.84-1.82-2.99,0-2.46,3.18-4.46,7.1-4.46,3.45,0,6.33,1.55,6.97,3.6h7.65c-.68-5.71-6.96-10.17-14.61-10.17-8.11,0-14.68,5.02-14.68,11.21,0,2.81,1.36,5.39,3.6,7.35.29.25.6.5.92.73,0,0,2.89,2.57,8.83,3.12,3.68.34,5.59.67,6.82,1.38.27.17.51.34.73.53.39.35.71.78,1.03,1.3.17.37.27.75.27,1.15,0,2.41-3.36,4.37-7.51,4.37-3.4,0-6.26-1.31-7.19-3.11h-7.97c.8,6,7.28,10.68,15.16,10.68,2.78,0,5.39-.58,7.64-1.6,3.7-1.82,6.38-4.65,7.28-7.86,0-.01,0-.02.01-.04,0-.02.01-.04.02-.06.2-.77.3-1.56.3-2.38,0-.19,0-.38-.02-.57-.1-1.32-.49-2.57-1.13-3.72"/>
      <path class="cls-1" d="M249.31,17.47c-10.52,0-19.04,8.73-19.04,19.51s8.52,19.51,19.04,19.51c7.42,0,13.85-4.6,16.99-10.94h-9.3c-2.04,1.87-4.73,3.26-7.69,3.26-5.23,0-9.64-3.56-11.06-8.45h29.82c.19-1.1.28-2.22.28-3.37,0-10.77-8.52-19.51-19.04-19.51M238.25,33.63c1.41-4.9,5.83-8.47,11.07-8.47s9.66,3.58,11.07,8.47h-22.13Z"/>
      <path class="cls-1" d="M48.6,56.49L34.02.14h-10.02l-9.16,24.48,6.06,8.91,7.04-19.31,11.07,39.54c.45,1.62,1.93,2.73,3.6,2.73h5.99Z"/>
      <path class="cls-1" d="M2.97,56.35h7c1.57,0,2.97-.98,3.51-2.46l.6-1.64-6.19-9.04-4.92,13.14Z"/>
      <path class="cls-2" d="M44.6,25.92c-10.03,0-19.02,4.26-25.29,11.21l-7.62-11.21H0l14.44,21.09s0,0,0,.01l2.6,3.79c8.85-11.28,21.09-19.79,35.18-23.98-2.44-.6-4.99-.91-7.62-.91"/>
    </g>
  </g>
  <g id="Layer_15" data-name="Layer 15">
    <g>
      <path class="cls-2" d="M350.54,35.07v-.07c.07-12.24,8.55-20.33,21.19-20.33,4.8,0,9.67,1.05,13.55,2.9l-4.87,10.4c-2.63-1.18-5.33-1.84-8.55-1.84-5.53,0-8.82,3.36-8.88,8.88v.13c0,5.59,3.36,8.88,9.01,8.88,3.22,0,6.38-.66,8.55-1.91l4.74,10.4c-3.88,1.91-8.82,3.03-13.55,3.03-13.16,0-21.12-7.76-21.19-20.46Z"/>
      <path class="cls-2" d="M414.89,54.68v-22.04c0-4.01-2.17-5.53-6.45-5.53-1.45,0-3.42.2-5.33.53v26.98h-12.37V1.25h12.37v14.21c2.3-.2,4.34-.33,5.79-.33,9.61,0,18.29,3.22,18.29,15,0,8.16.07,16.38.07,24.54h-12.37Z"/>
      <path class="cls-2" d="M433.58,35.27v-.07c0-12.04,9.21-20.59,21.45-20.59h.07c12.44,0,21.65,8.55,21.65,20.59v.07c0,11.97-9.21,20.26-21.65,20.26h-.07c-12.24,0-21.45-8.29-21.45-20.26ZM455.16,44.15c5.66,0,9.21-3.82,9.21-8.88v-.07c0-5.2-3.55-9.08-9.21-9.08h-.07c-5.53,0-9.08,3.88-9.08,9.08v.07c0,5.07,3.55,8.88,9.08,8.88h.07Z"/>
      <path class="cls-2" d="M482.8,5.79c0-3.49,2.83-5.79,6.51-5.79s6.45,2.3,6.45,5.79c0,3.95-3.09,5.79-6.45,5.79s-6.51-1.84-6.51-5.79ZM483.06,16.25h12.37v38.36h-12.37V16.25Z"/>
      <path class="cls-2" d="M501.95,35.07v-.07c.07-12.24,8.55-20.33,21.19-20.33,4.8,0,9.67,1.05,13.55,2.9l-4.87,10.4c-2.63-1.18-5.33-1.84-8.55-1.84-5.53,0-8.82,3.36-8.88,8.88v.13c0,5.59,3.36,8.88,9.01,8.88,3.22,0,6.38-.66,8.55-1.91l4.74,10.4c-3.88,1.91-8.82,3.03-13.55,3.03-13.16,0-21.12-7.76-21.19-20.46Z"/>
      <path class="cls-2" d="M578.01,38.69h-26.84c1.18,3.82,4.34,6.05,8.95,6.05,4.21,0,8.42-1.25,11.12-2.9l5.26,9.54c-4.08,2.17-9.67,4.08-17.04,4.08-12.7,0-21.19-8.16-21.19-20.33v-.07c0-12.24,8.16-20.46,20.33-20.46s19.48,8.29,19.48,20.59c0,.79,0,2.7-.07,3.49ZM551.1,30.33h14.8c-.79-3.42-3.42-5.53-7.43-5.53s-6.45,2.04-7.37,5.53Z"/>
    </g>
  </g>
</svg>